<?xml version="1.0" encoding="utf-8"?>
<!-- Generator: Adobe Illustrator 16.0.0, SVG Export Plug-In . SVG Version: 6.00 Build 0)  -->
<!DOCTYPE svg PUBLIC "-//W3C//DTD SVG 1.0//EN" "http://www.w3.org/TR/2001/REC-SVG-20010904/DTD/svg10.dtd">
<svg version="1.0" id="Layer_1" xmlns="http://www.w3.org/2000/svg" xmlns:xlink="http://www.w3.org/1999/xlink" x="0px" y="0px"
	 width="100px" height="100px" viewBox="0 0 100 100" enable-background="new 0 0 100 100" xml:space="preserve">
<path d="M43.333,26.667H40V20c0-5.521-4.479-10-10-10s-10,4.479-10,10v6.667h-3.333c-1.833,0-3.334,1.504-3.334,3.333v16.667
	c0,1.836,1.501,3.333,3.334,3.333h26.666c1.833,0,3.334-1.497,3.334-3.333V30C46.667,28.171,45.166,26.667,43.333,26.667z
	 M26.667,20c0-1.843,1.49-3.333,3.333-3.333s3.333,1.49,3.333,3.333v6.667h-6.666V20z"/>
<path d="M66.667,46.667c0,1.832-1.501,3.333-3.334,3.333h-6.666c-1.833,0-3.334-1.501-3.334-3.333V40
	c0-1.833,1.501-3.333,3.334-3.333h6.666c1.833,0,3.334,1.5,3.334,3.333V46.667z"/>
<path d="M86.667,46.667c0,1.832-1.501,3.333-3.334,3.333h-6.666c-1.833,0-3.334-1.501-3.334-3.333V40
	c0-1.833,1.501-3.333,3.334-3.333h6.666c1.833,0,3.334,1.5,3.334,3.333V46.667z"/>
<path d="M66.667,66.667c0,1.832-1.501,3.333-3.334,3.333h-6.666c-1.833,0-3.334-1.501-3.334-3.333V60
	c0-1.833,1.501-3.333,3.334-3.333h6.666c1.833,0,3.334,1.5,3.334,3.333V66.667z"/>
<path d="M86.667,66.667c0,1.832-1.501,3.333-3.334,3.333h-6.666c-1.833,0-3.334-1.501-3.334-3.333V60
	c0-1.833,1.501-3.333,3.334-3.333h6.666c1.833,0,3.334,1.5,3.334,3.333V66.667z"/>
<path d="M66.667,86.667c0,1.832-1.501,3.333-3.334,3.333h-6.666c-1.833,0-3.334-1.501-3.334-3.333V80
	c0-1.833,1.501-3.333,3.334-3.333h6.666c1.833,0,3.334,1.5,3.334,3.333V86.667z"/>
<path d="M46.667,66.667c0,1.832-1.501,3.333-3.334,3.333h-6.666c-1.833,0-3.334-1.501-3.334-3.333V60
	c0-1.833,1.501-3.333,3.334-3.333h6.666c1.833,0,3.334,1.5,3.334,3.333V66.667z"/>
<path d="M46.667,86.667c0,1.832-1.501,3.333-3.334,3.333h-6.666c-1.833,0-3.334-1.501-3.334-3.333V80
	c0-1.833,1.501-3.333,3.334-3.333h6.666c1.833,0,3.334,1.5,3.334,3.333V86.667z"/>
<path d="M86.667,86.667c0,1.832-1.501,3.333-3.334,3.333h-6.666c-1.833,0-3.334-1.501-3.334-3.333V80
	c0-1.833,1.501-3.333,3.334-3.333h6.666c1.833,0,3.334,1.5,3.334,3.333V86.667z"/>
</svg>
